<svg width="154" height="120" viewBox="0 0 154 120" fill="none" xmlns="http://www.w3.org/2000/svg">
<rect x="20" y="3" width="114" height="114" rx="17" fill="#169FB5" stroke="#BCECF4" stroke-width="6"/>
<line x1="1.94072" y1="99.3816" x2="81.4446" y2="20.0843" stroke="white" stroke-width="3"/>
<line x1="80.1149" y1="18.9966" x2="152.115" y2="98.9966" stroke="white" stroke-width="3"/>
<line x1="109.603" y1="51" x2="109.603" y2="20" stroke="white" stroke-width="3"/>
<line y1="-1.5" x2="10.1108" y2="-1.5" transform="matrix(1 0 0.0492331 0.998787 108 20.9128)" stroke="white" stroke-width="3"/>
<line x1="116.603" y1="60.7" x2="116.603" y2="20" stroke="white" stroke-width="3"/>
<mask id="path-7-inside-1_166_238" fill="white">
<path d="M87.1487 25.2642C87.3192 25.8493 87.3199 26.455 87.1506 27.0403C86.9813 27.6256 86.646 28.1767 86.1674 28.6563C85.6889 29.1358 85.0783 29.5326 84.3772 29.8196C83.6761 30.1066 82.9008 30.2771 82.1039 30.3196C81.3071 30.3622 80.5074 30.2756 79.7591 30.066C79.0108 29.8563 78.3315 29.5284 77.7672 29.1045C77.2029 28.6806 76.7668 28.1706 76.4886 27.6092C76.2105 27.0478 76.0967 26.4481 76.155 25.8508L81.7086 26.1556L87.1487 25.2642Z"/>
</mask>
<path d="M87.1487 25.2642C87.3192 25.8493 87.3199 26.455 87.1506 27.0403C86.9813 27.6256 86.646 28.1767 86.1674 28.6563C85.6889 29.1358 85.0783 29.5326 84.3772 29.8196C83.6761 30.1066 82.9008 30.2771 82.1039 30.3196C81.3071 30.3622 80.5074 30.2756 79.7591 30.066C79.0108 29.8563 78.3315 29.5284 77.7672 29.1045C77.2029 28.6806 76.7668 28.1706 76.4886 27.6092C76.2105 27.0478 76.0967 26.4481 76.155 25.8508L81.7086 26.1556L87.1487 25.2642Z" stroke="white" stroke-width="6" mask="url(#path-7-inside-1_166_238)"/>
<mask id="path-8-inside-2_166_238" fill="white">
<path d="M86.6179 37.7882C86.7885 38.3732 86.7891 38.979 86.6198 39.5643C86.4505 40.1495 86.1152 40.7007 85.6367 41.1802C85.1581 41.6597 84.5476 42.0565 83.8464 42.3435C83.1453 42.6305 82.37 42.8011 81.5732 42.8436C80.7763 42.8861 79.9766 42.7996 79.2283 42.5899C78.4801 42.3802 77.8007 42.0523 77.2364 41.6284C76.6721 41.2045 76.2361 40.6946 75.9579 40.1332C75.6797 39.5718 75.5659 38.9721 75.6242 38.3748L81.1778 38.6795L86.6179 37.7882Z"/>
</mask>
<path d="M86.6179 37.7882C86.7885 38.3732 86.7891 38.979 86.6198 39.5643C86.4505 40.1495 86.1152 40.7007 85.6367 41.1802C85.1581 41.6597 84.5476 42.0565 83.8464 42.3435C83.1453 42.6305 82.37 42.8011 81.5732 42.8436C80.7763 42.8861 79.9766 42.7996 79.2283 42.5899C78.4801 42.3802 77.8007 42.0523 77.2364 41.6284C76.6721 41.2045 76.2361 40.6946 75.9579 40.1332C75.6797 39.5718 75.5659 38.9721 75.6242 38.3748L81.1778 38.6795L86.6179 37.7882Z" stroke="white" stroke-width="6" mask="url(#path-8-inside-2_166_238)"/>
<mask id="path-9-inside-3_166_238" fill="white">
<path d="M73.3601 36.1182C73.5306 36.7033 73.5313 37.3091 73.362 37.8943C73.1927 38.4796 72.8574 39.0307 72.3789 39.5103C71.9003 39.9898 71.2898 40.3866 70.5886 40.6736C69.8875 40.9606 69.1122 41.1311 68.3154 41.1736C67.5185 41.2162 66.7188 41.1297 65.9705 40.92C65.2222 40.7103 64.5429 40.3824 63.9786 39.9585C63.4143 39.5346 62.9782 39.0246 62.7001 38.4632C62.4219 37.9018 62.3081 37.3021 62.3664 36.7048L67.92 37.0096L73.3601 36.1182Z"/>
</mask>
<path d="M73.3601 36.1182C73.5306 36.7033 73.5313 37.3091 73.362 37.8943C73.1927 38.4796 72.8574 39.0307 72.3789 39.5103C71.9003 39.9898 71.2898 40.3866 70.5886 40.6736C69.8875 40.9606 69.1122 41.1311 68.3154 41.1736C67.5185 41.2162 66.7188 41.1297 65.9705 40.92C65.2222 40.7103 64.5429 40.3824 63.9786 39.9585C63.4143 39.5346 62.9782 39.0246 62.7001 38.4632C62.4219 37.9018 62.3081 37.3021 62.3664 36.7048L67.92 37.0096L73.3601 36.1182Z" stroke="white" stroke-width="6" mask="url(#path-9-inside-3_166_238)"/>
<mask id="path-10-inside-4_166_238" fill="white">
<path d="M102.528 57.8262C102.699 58.4113 102.699 59.0171 102.53 59.6023C102.361 60.1876 102.025 60.7387 101.547 61.2183C101.068 61.6978 100.458 62.0946 99.7566 62.3816C99.0555 62.6686 98.2802 62.8391 97.4833 62.8817C96.6865 62.9242 95.8868 62.8377 95.1385 62.628C94.3902 62.4183 93.7109 62.0904 93.1466 61.6665C92.5823 61.2426 92.1462 60.7327 91.868 60.1712C91.5899 59.6098 91.4761 59.0101 91.5344 58.4129L97.088 58.7176L102.528 57.8262Z"/>
</mask>
<path d="M102.528 57.8262C102.699 58.4113 102.699 59.0171 102.53 59.6023C102.361 60.1876 102.025 60.7387 101.547 61.2183C101.068 61.6978 100.458 62.0946 99.7566 62.3816C99.0555 62.6686 98.2802 62.8391 97.4833 62.8817C96.6865 62.9242 95.8868 62.8377 95.1385 62.628C94.3902 62.4183 93.7109 62.0904 93.1466 61.6665C92.5823 61.2426 92.1462 60.7327 91.868 60.1712C91.5899 59.6098 91.4761 59.0101 91.5344 58.4129L97.088 58.7176L102.528 57.8262Z" stroke="white" stroke-width="6" mask="url(#path-10-inside-4_166_238)"/>
<mask id="path-11-inside-5_166_238" fill="white">
<path d="M83.4363 34.4483C83.6068 35.0334 83.6075 35.6391 83.4382 36.2244C83.2689 36.8097 82.9336 37.3608 82.455 37.8404C81.9765 38.3199 81.3659 38.7166 80.6648 39.0036C79.9637 39.2907 79.1884 39.4612 78.3915 39.5037C77.5947 39.5462 76.795 39.4597 76.0467 39.2501C75.2984 39.0404 74.6191 38.7125 74.0548 38.2886C73.4905 37.8647 73.0544 37.3547 72.7762 36.7933C72.4981 36.2319 72.3843 35.6322 72.4426 35.0349L77.9962 35.3396L83.4363 34.4483Z"/>
</mask>
<path d="M83.4363 34.4483C83.6068 35.0334 83.6075 35.6391 83.4382 36.2244C83.2689 36.8097 82.9336 37.3608 82.455 37.8404C81.9765 38.3199 81.3659 38.7166 80.6648 39.0036C79.9637 39.2907 79.1884 39.4612 78.3915 39.5037C77.5947 39.5462 76.795 39.4597 76.0467 39.2501C75.2984 39.0404 74.6191 38.7125 74.0548 38.2886C73.4905 37.8647 73.0544 37.3547 72.7762 36.7933C72.4981 36.2319 72.3843 35.6322 72.4426 35.0349L77.9962 35.3396L83.4363 34.4483Z" stroke="white" stroke-width="6" mask="url(#path-11-inside-5_166_238)"/>
<mask id="path-12-inside-6_166_238" fill="white">
<path d="M80.2541 30.274C80.4247 30.8591 80.4253 31.4648 80.256 32.0501C80.0867 32.6354 79.7514 33.1865 79.2729 33.666C78.7944 34.1456 78.1838 34.5423 77.4827 34.8293C76.7815 35.1163 76.0062 35.2869 75.2094 35.3294C74.4126 35.3719 73.6129 35.2854 72.8646 35.0757C72.1163 34.8661 71.4369 34.5382 70.8726 34.1143C70.3083 33.6904 69.8723 33.1804 69.5941 32.619C69.3159 32.0576 69.2021 31.4579 69.2605 30.8606L74.8141 31.1653L80.2541 30.274Z"/>
</mask>
<path d="M80.2541 30.274C80.4247 30.8591 80.4253 31.4648 80.256 32.0501C80.0867 32.6354 79.7514 33.1865 79.2729 33.666C78.7944 34.1456 78.1838 34.5423 77.4827 34.8293C76.7815 35.1163 76.0062 35.2869 75.2094 35.3294C74.4126 35.3719 73.6129 35.2854 72.8646 35.0757C72.1163 34.8661 71.4369 34.5382 70.8726 34.1143C70.3083 33.6904 69.8723 33.1804 69.5941 32.619C69.3159 32.0576 69.2021 31.4579 69.2605 30.8606L74.8141 31.1653L80.2541 30.274Z" stroke="white" stroke-width="6" mask="url(#path-12-inside-6_166_238)"/>
<mask id="path-13-inside-7_166_238" fill="white">
<path d="M89.2698 41.9627C89.4403 42.5478 89.441 43.1535 89.2717 43.7388C89.1024 44.3241 88.7671 44.8752 88.2885 45.3548C87.81 45.8343 87.1994 46.231 86.4983 46.5181C85.7972 46.8051 85.0219 46.9756 84.225 47.0181C83.4282 47.0606 82.6285 46.9741 81.8802 46.7645C81.1319 46.5548 80.4526 46.2269 79.8883 45.803C79.3239 45.3791 78.8879 44.8691 78.6097 44.3077C78.3316 43.7463 78.2178 43.1466 78.2761 42.5493L83.8297 42.8541L89.2698 41.9627Z"/>
</mask>
<path d="M89.2698 41.9627C89.4403 42.5478 89.441 43.1535 89.2717 43.7388C89.1024 44.3241 88.7671 44.8752 88.2885 45.3548C87.81 45.8343 87.1994 46.231 86.4983 46.5181C85.7972 46.8051 85.0219 46.9756 84.225 47.0181C83.4282 47.0606 82.6285 46.9741 81.8802 46.7645C81.1319 46.5548 80.4526 46.2269 79.8883 45.803C79.3239 45.3791 78.8879 44.8691 78.6097 44.3077C78.3316 43.7463 78.2178 43.1466 78.2761 42.5493L83.8297 42.8541L89.2698 41.9627Z" stroke="white" stroke-width="6" mask="url(#path-13-inside-7_166_238)"/>
<mask id="path-14-inside-8_166_238" fill="white">
<path d="M76.0115 40.293C76.182 40.8781 76.1827 41.4839 76.0134 42.0691C75.8441 42.6544 75.5088 43.2055 75.0302 43.6851C74.5517 44.1646 73.9411 44.5614 73.24 44.8484C72.5389 45.1354 71.7636 45.3059 70.9667 45.3485C70.1699 45.391 69.3702 45.3045 68.6219 45.0948C67.8736 44.8851 67.1943 44.5572 66.63 44.1333C66.0656 43.7094 65.6296 43.1994 65.3514 42.638C65.0733 42.0766 64.9595 41.4769 65.0178 40.8797L70.5714 41.1844L76.0115 40.293Z"/>
</mask>
<path d="M76.0115 40.293C76.182 40.8781 76.1827 41.4839 76.0134 42.0691C75.8441 42.6544 75.5088 43.2055 75.0302 43.6851C74.5517 44.1646 73.9411 44.5614 73.24 44.8484C72.5389 45.1354 71.7636 45.3059 70.9667 45.3485C70.1699 45.391 69.3702 45.3045 68.6219 45.0948C67.8736 44.8851 67.1943 44.5572 66.63 44.1333C66.0656 43.7094 65.6296 43.1994 65.3514 42.638C65.0733 42.0766 64.9595 41.4769 65.0178 40.8797L70.5714 41.1844L76.0115 40.293Z" stroke="white" stroke-width="6" mask="url(#path-14-inside-8_166_238)"/>
<mask id="path-15-inside-9_166_238" fill="white">
<path d="M105.18 62.0011C105.35 62.5861 105.351 63.1919 105.182 63.7771C105.013 64.3624 104.677 64.9135 104.199 65.3931C103.72 65.8726 103.11 66.2694 102.408 66.5564C101.707 66.8434 100.932 67.0139 100.135 67.0565C99.3384 67.099 98.5387 67.0125 97.7904 66.8028C97.0421 66.5931 96.3627 66.2652 95.7984 65.8413C95.2341 65.4174 94.7981 64.9075 94.5199 64.3461C94.2417 63.7847 94.1279 63.1849 94.1862 62.5877L99.7399 62.8924L105.18 62.0011Z"/>
</mask>
<path d="M105.18 62.0011C105.35 62.5861 105.351 63.1919 105.182 63.7771C105.013 64.3624 104.677 64.9135 104.199 65.3931C103.72 65.8726 103.11 66.2694 102.408 66.5564C101.707 66.8434 100.932 67.0139 100.135 67.0565C99.3384 67.099 98.5387 67.0125 97.7904 66.8028C97.0421 66.5931 96.3627 66.2652 95.7984 65.8413C95.2341 65.4174 94.7981 64.9075 94.5199 64.3461C94.2417 63.7847 94.1279 63.1849 94.1862 62.5877L99.7399 62.8924L105.18 62.0011Z" stroke="white" stroke-width="6" mask="url(#path-15-inside-9_166_238)"/>
<mask id="path-16-inside-10_166_238" fill="white">
<path d="M120.029 77.8646C120.199 78.4497 120.2 79.0554 120.03 79.6407C119.861 80.226 119.526 80.7771 119.047 81.2566C118.569 81.7362 117.958 82.1329 117.257 82.4199C116.556 82.7069 115.781 82.8775 114.984 82.92C114.187 82.9625 113.387 82.876 112.639 82.6663C111.891 82.4567 111.211 82.1287 110.647 81.7048C110.083 81.2809 109.647 80.771 109.369 80.2096C109.09 79.6482 108.977 79.0485 109.035 78.4512L114.588 78.7559L120.029 77.8646Z"/>
</mask>
<path d="M120.029 77.8646C120.199 78.4497 120.2 79.0554 120.03 79.6407C119.861 80.226 119.526 80.7771 119.047 81.2566C118.569 81.7362 117.958 82.1329 117.257 82.4199C116.556 82.7069 115.781 82.8775 114.984 82.92C114.187 82.9625 113.387 82.876 112.639 82.6663C111.891 82.4567 111.211 82.1287 110.647 81.7048C110.083 81.2809 109.647 80.771 109.369 80.2096C109.09 79.6482 108.977 79.0485 109.035 78.4512L114.588 78.7559L120.029 77.8646Z" stroke="white" stroke-width="6" mask="url(#path-16-inside-10_166_238)"/>
<mask id="path-17-inside-11_166_238" fill="white">
<path d="M89.2698 56.9913C89.4403 57.5764 89.441 58.1821 89.2717 58.7674C89.1024 59.3527 88.7671 59.9038 88.2885 60.3833C87.81 60.8629 87.1994 61.2596 86.4983 61.5466C85.7972 61.8336 85.0219 62.0042 84.225 62.0467C83.4282 62.0892 82.6285 62.0027 81.8802 61.793C81.1319 61.5834 80.4526 61.2555 79.8883 60.8316C79.3239 60.4077 78.8879 59.8977 78.6097 59.3363C78.3316 58.7749 78.2178 58.1752 78.2761 57.5779L83.8297 57.8826L89.2698 56.9913Z"/>
</mask>
<path d="M89.2698 56.9913C89.4403 57.5764 89.441 58.1821 89.2717 58.7674C89.1024 59.3527 88.7671 59.9038 88.2885 60.3833C87.81 60.8629 87.1994 61.2596 86.4983 61.5466C85.7972 61.8336 85.0219 62.0042 84.225 62.0467C83.4282 62.0892 82.6285 62.0027 81.8802 61.793C81.1319 61.5834 80.4526 61.2555 79.8883 60.8316C79.3239 60.4077 78.8879 59.8977 78.6097 59.3363C78.3316 58.7749 78.2178 58.1752 78.2761 57.5779L83.8297 57.8826L89.2698 56.9913Z" stroke="white" stroke-width="6" mask="url(#path-17-inside-11_166_238)"/>
<mask id="path-18-inside-12_166_238" fill="white">
<path d="M101.998 72.8548C102.168 73.4399 102.169 74.0456 102 74.6309C101.83 75.2162 101.495 75.7673 101.017 76.2468C100.538 76.7264 99.9275 77.1231 99.2263 77.4101C98.5252 77.6971 97.7499 77.8677 96.9531 77.9102C96.1562 77.9527 95.3565 77.8662 94.6082 77.6566C93.8599 77.4469 93.1806 77.119 92.6163 76.6951C92.052 76.2712 91.6159 75.7612 91.3378 75.1998C91.0596 74.6384 90.9458 74.0387 91.0041 73.4414L96.5577 73.7461L101.998 72.8548Z"/>
</mask>
<path d="M101.998 72.8548C102.168 73.4399 102.169 74.0456 102 74.6309C101.83 75.2162 101.495 75.7673 101.017 76.2468C100.538 76.7264 99.9275 77.1231 99.2263 77.4101C98.5252 77.6971 97.7499 77.8677 96.9531 77.9102C96.1562 77.9527 95.3565 77.8662 94.6082 77.6566C93.8599 77.4469 93.1806 77.119 92.6163 76.6951C92.052 76.2712 91.6159 75.7612 91.3378 75.1998C91.0596 74.6384 90.9458 74.0387 91.0041 73.4414L96.5577 73.7461L101.998 72.8548Z" stroke="white" stroke-width="6" mask="url(#path-18-inside-12_166_238)"/>
<path d="M61.8828 45.1867L62.0461 45.1956L62.2075 45.1692L65.7842 44.5832C65.6804 44.7661 65.5413 44.9504 65.362 45.1301C65.0402 45.4525 64.6036 45.7444 64.0653 45.9647C63.5278 46.1848 62.9184 46.3211 62.2804 46.3551C61.6425 46.3892 61.0067 46.3193 60.4202 46.155C59.8329 45.9904 59.3256 45.7399 58.9244 45.4386L58.0235 46.6379L58.9244 45.4386C58.7368 45.2976 58.5772 45.1493 58.4439 44.998L61.8828 45.1867Z" stroke="white" stroke-width="3"/>
<mask id="path-20-inside-13_166_238" fill="white">
<path d="M78.6633 59.4959C78.8339 60.081 78.8345 60.6867 78.6652 61.272C78.4959 61.8573 78.1606 62.4084 77.6821 62.888C77.2035 63.3675 76.593 63.7642 75.8919 64.0513C75.1907 64.3383 74.4154 64.5088 73.6186 64.5513C72.8218 64.5939 72.022 64.5073 71.2738 64.2977C70.5255 64.088 69.8461 63.7601 69.2818 63.3362C68.7175 62.9123 68.2815 62.4023 68.0033 61.8409C67.7251 61.2795 67.6113 60.6798 67.6696 60.0825L73.2233 60.3873L78.6633 59.4959Z"/>
</mask>
<path d="M78.6633 59.4959C78.8339 60.081 78.8345 60.6867 78.6652 61.272C78.4959 61.8573 78.1606 62.4084 77.6821 62.888C77.2035 63.3675 76.593 63.7642 75.8919 64.0513C75.1907 64.3383 74.4154 64.5088 73.6186 64.5513C72.8218 64.5939 72.022 64.5073 71.2738 64.2977C70.5255 64.088 69.8461 63.7601 69.2818 63.3362C68.7175 62.9123 68.2815 62.4023 68.0033 61.8409C67.7251 61.2795 67.6113 60.6798 67.6696 60.0825L73.2233 60.3873L78.6633 59.4959Z" stroke="white" stroke-width="6" mask="url(#path-20-inside-13_166_238)"/>
<mask id="path-21-inside-14_166_238" fill="white">
<path d="M60.0085 49.2833C60.1791 49.8684 60.1797 50.4741 60.0104 51.0594C59.8411 51.6447 59.5058 52.1958 59.0273 52.6753C58.5488 53.1549 57.9382 53.5516 57.2371 53.8386C56.5359 54.1256 55.7606 54.2962 54.9638 54.3387C54.167 54.3812 53.3673 54.2947 52.619 54.085C51.8707 53.8754 51.1913 53.5474 50.627 53.1235C50.0627 52.6996 49.6267 52.1897 49.3485 51.6283C49.0703 51.0669 48.9565 50.4672 49.0149 49.8699L54.5685 50.1746L60.0085 49.2833Z"/>
</mask>
<path d="M60.0085 49.2833C60.1791 49.8684 60.1797 50.4741 60.0104 51.0594C59.8411 51.6447 59.5058 52.1958 59.0273 52.6753C58.5488 53.1549 57.9382 53.5516 57.2371 53.8386C56.5359 54.1256 55.7606 54.2962 54.9638 54.3387C54.167 54.3812 53.3673 54.2947 52.619 54.085C51.8707 53.8754 51.1913 53.5474 50.627 53.1235C50.0627 52.6996 49.6267 52.1897 49.3485 51.6283C49.0703 51.0669 48.9565 50.4672 49.0149 49.8699L54.5685 50.1746L60.0085 49.2833Z" stroke="white" stroke-width="6" mask="url(#path-21-inside-14_166_238)"/>
<mask id="path-22-inside-15_166_238" fill="white">
<path d="M92.9822 46.1373C93.1527 46.7224 93.1534 47.3281 92.9841 47.9134C92.8148 48.4987 92.4795 49.0498 92.0009 49.5293C91.5224 50.0089 90.9118 50.4056 90.2107 50.6926C89.5096 50.9796 88.7343 51.1502 87.9374 51.1927C87.1406 51.2352 86.3409 51.1487 85.5926 50.939C84.8443 50.7294 84.165 50.4014 83.6007 49.9775C83.0364 49.5536 82.6003 49.0437 82.3221 48.4823C82.044 47.9209 81.9302 47.3212 81.9885 46.7239L87.5421 47.0286L92.9822 46.1373Z"/>
</mask>
<path d="M92.9822 46.1373C93.1527 46.7224 93.1534 47.3281 92.9841 47.9134C92.8148 48.4987 92.4795 49.0498 92.0009 49.5293C91.5224 50.0089 90.9118 50.4056 90.2107 50.6926C89.5096 50.9796 88.7343 51.1502 87.9374 51.1927C87.1406 51.2352 86.3409 51.1487 85.5926 50.939C84.8443 50.7294 84.165 50.4014 83.6007 49.9775C83.0364 49.5536 82.6003 49.0437 82.3221 48.4823C82.044 47.9209 81.9302 47.3212 81.9885 46.7239L87.5421 47.0286L92.9822 46.1373Z" stroke="white" stroke-width="6" mask="url(#path-22-inside-15_166_238)"/>
<mask id="path-23-inside-16_166_238" fill="white">
<path d="M79.7239 44.4676C79.8944 45.0527 79.8951 45.6584 79.7258 46.2437C79.5565 46.829 79.2212 47.3801 78.7426 47.8596C78.2641 48.3392 77.6535 48.7359 76.9524 49.0229C76.2513 49.3099 75.476 49.4805 74.6791 49.523C73.8823 49.5655 73.0826 49.479 72.3343 49.2694C71.586 49.0597 70.9067 48.7318 70.3424 48.3079C69.7781 47.884 69.342 47.374 69.0638 46.8126C68.7857 46.2512 68.6719 45.6515 68.7302 45.0542L74.2838 45.3589L79.7239 44.4676Z"/>
</mask>
<path d="M79.7239 44.4676C79.8944 45.0527 79.8951 45.6584 79.7258 46.2437C79.5565 46.829 79.2212 47.3801 78.7426 47.8596C78.2641 48.3392 77.6535 48.7359 76.9524 49.0229C76.2513 49.3099 75.476 49.4805 74.6791 49.523C73.8823 49.5655 73.0826 49.479 72.3343 49.2694C71.586 49.0597 70.9067 48.7318 70.3424 48.3079C69.7781 47.884 69.342 47.374 69.0638 46.8126C68.7857 46.2512 68.6719 45.6515 68.7302 45.0542L74.2838 45.3589L79.7239 44.4676Z" stroke="white" stroke-width="6" mask="url(#path-23-inside-16_166_238)"/>
<mask id="path-24-inside-17_166_238" fill="white">
<path d="M108.892 66.1756C109.062 66.7607 109.063 67.3664 108.894 67.9517C108.724 68.537 108.389 69.0881 107.911 69.5676C107.432 70.0472 106.822 70.4439 106.12 70.7309C105.419 71.018 104.644 71.1885 103.847 71.231C103.05 71.2735 102.251 71.187 101.502 70.9774C100.754 70.7677 100.075 70.4398 99.5103 70.0159C98.946 69.592 98.51 69.082 98.2318 68.5206C97.9536 67.9592 97.8398 67.3595 97.8982 66.7622L103.452 67.0669L108.892 66.1756Z"/>
</mask>
<path d="M108.892 66.1756C109.062 66.7607 109.063 67.3664 108.894 67.9517C108.724 68.537 108.389 69.0881 107.911 69.5676C107.432 70.0472 106.822 70.4439 106.12 70.7309C105.419 71.018 104.644 71.1885 103.847 71.231C103.05 71.2735 102.251 71.187 101.502 70.9774C100.754 70.7677 100.075 70.4398 99.5103 70.0159C98.946 69.592 98.51 69.082 98.2318 68.5206C97.9536 67.9592 97.8398 67.3595 97.8982 66.7622L103.452 67.0669L108.892 66.1756Z" stroke="white" stroke-width="6" mask="url(#path-24-inside-17_166_238)"/>
<mask id="path-25-inside-18_166_238" fill="white">
<path d="M123.741 82.0389C123.912 82.624 123.913 83.2297 123.743 83.815C123.574 84.4003 123.239 84.9514 122.76 85.4309C122.282 85.9105 121.671 86.3072 120.97 86.5942C120.269 86.8812 119.494 87.0518 118.697 87.0943C117.9 87.1368 117.1 87.0503 116.352 86.8406C115.604 86.631 114.924 86.3031 114.36 85.8792C113.796 85.4553 113.36 84.9453 113.081 84.3839C112.803 83.8225 112.689 83.2228 112.748 82.6255L118.301 82.9302L123.741 82.0389Z"/>
</mask>
<path d="M123.741 82.0389C123.912 82.624 123.913 83.2297 123.743 83.815C123.574 84.4003 123.239 84.9514 122.76 85.4309C122.282 85.9105 121.671 86.3072 120.97 86.5942C120.269 86.8812 119.494 87.0518 118.697 87.0943C117.9 87.1368 117.1 87.0503 116.352 86.8406C115.604 86.631 114.924 86.3031 114.36 85.8792C113.796 85.4553 113.36 84.9453 113.081 84.3839C112.803 83.8225 112.689 83.2228 112.748 82.6255L118.301 82.9302L123.741 82.0389Z" stroke="white" stroke-width="6" mask="url(#path-25-inside-18_166_238)"/>
<mask id="path-26-inside-19_166_238" fill="white">
<path d="M92.9822 61.1661C93.1527 61.7512 93.1534 62.3569 92.9841 62.9422C92.8148 63.5275 92.4795 64.0786 92.0009 64.5581C91.5224 65.0377 90.9118 65.4344 90.2107 65.7214C89.5096 66.0084 88.7343 66.179 87.9374 66.2215C87.1406 66.264 86.3409 66.1775 85.5926 65.9678C84.8443 65.7582 84.165 65.4303 83.6007 65.0064C83.0364 64.5825 82.6003 64.0725 82.3221 63.5111C82.044 62.9497 81.9302 62.35 81.9885 61.7527L87.5421 62.0574L92.9822 61.1661Z"/>
</mask>
<path d="M92.9822 61.1661C93.1527 61.7512 93.1534 62.3569 92.9841 62.9422C92.8148 63.5275 92.4795 64.0786 92.0009 64.5581C91.5224 65.0377 90.9118 65.4344 90.2107 65.7214C89.5096 66.0084 88.7343 66.179 87.9374 66.2215C87.1406 66.264 86.3409 66.1775 85.5926 65.9678C84.8443 65.7582 84.165 65.4303 83.6007 65.0064C83.0364 64.5825 82.6003 64.0725 82.3221 63.5111C82.044 62.9497 81.9302 62.35 81.9885 61.7527L87.5421 62.0574L92.9822 61.1661Z" stroke="white" stroke-width="6" mask="url(#path-26-inside-19_166_238)"/>
<mask id="path-27-inside-20_166_238" fill="white">
<path d="M105.71 77.0294C105.881 77.6144 105.881 78.2202 105.712 78.8055C105.543 79.3907 105.207 79.9419 104.729 80.4214C104.25 80.901 103.64 81.2977 102.939 81.5847C102.238 81.8717 101.462 82.0423 100.665 82.0848C99.8686 82.1273 99.0689 82.0408 98.3206 81.8311C97.5723 81.6215 96.893 81.2935 96.3287 80.8696C95.7644 80.4457 95.3283 79.9358 95.0502 79.3744C94.772 78.813 94.6582 78.2133 94.7165 77.616L100.27 77.9207L105.71 77.0294Z"/>
</mask>
<path d="M105.71 77.0294C105.881 77.6144 105.881 78.2202 105.712 78.8055C105.543 79.3907 105.207 79.9419 104.729 80.4214C104.25 80.901 103.64 81.2977 102.939 81.5847C102.238 81.8717 101.462 82.0423 100.665 82.0848C99.8686 82.1273 99.0689 82.0408 98.3206 81.8311C97.5723 81.6215 96.893 81.2935 96.3287 80.8696C95.7644 80.4457 95.3283 79.9358 95.0502 79.3744C94.772 78.813 94.6582 78.2133 94.7165 77.616L100.27 77.9207L105.71 77.0294Z" stroke="white" stroke-width="6" mask="url(#path-27-inside-20_166_238)"/>
<mask id="path-28-inside-21_166_238" fill="white">
<path d="M69.1174 46.9722C69.288 47.5573 69.2886 48.1631 69.1193 48.7483C68.95 49.3336 68.6147 49.8847 68.1362 50.3643C67.6576 50.8438 67.0471 51.2406 66.346 51.5276C65.6448 51.8146 64.8695 51.9851 64.0727 52.0276C63.2759 52.0702 62.4762 51.9837 61.7279 51.774C60.9796 51.5643 60.3002 51.2364 59.7359 50.8125C59.1716 50.3886 58.7356 49.8786 58.4574 49.3172C58.1792 48.7558 58.0654 48.1561 58.1237 47.5589L63.6774 47.8636L69.1174 46.9722Z"/>
</mask>
<path d="M69.1174 46.9722C69.288 47.5573 69.2886 48.1631 69.1193 48.7483C68.95 49.3336 68.6147 49.8847 68.1362 50.3643C67.6576 50.8438 67.0471 51.2406 66.346 51.5276C65.6448 51.8146 64.8695 51.9851 64.0727 52.0276C63.2759 52.0702 62.4762 51.9837 61.7279 51.774C60.9796 51.5643 60.3002 51.2364 59.7359 50.8125C59.1716 50.3886 58.7356 49.8786 58.4574 49.3172C58.1792 48.7558 58.0654 48.1561 58.1237 47.5589L63.6774 47.8636L69.1174 46.9722Z" stroke="white" stroke-width="6" mask="url(#path-28-inside-21_166_238)"/>
<mask id="path-29-inside-22_166_238" fill="white">
<path d="M82.3757 63.6705C82.5463 64.2556 82.5469 64.8613 82.3776 65.4466C82.2083 66.0319 81.873 66.583 81.3945 67.0625C80.916 67.5421 80.3054 67.9388 79.6043 68.2258C78.9031 68.5128 78.1278 68.6834 77.331 68.7259C76.5342 68.7684 75.7345 68.6819 74.9862 68.4722C74.2379 68.2626 73.5585 67.9347 72.9942 67.5108C72.4299 67.0869 71.9939 66.5769 71.7157 66.0155C71.4375 65.4541 71.3237 64.8544 71.382 64.2571L76.9357 64.5618L82.3757 63.6705Z"/>
</mask>
<path d="M82.3757 63.6705C82.5463 64.2556 82.5469 64.8613 82.3776 65.4466C82.2083 66.0319 81.873 66.583 81.3945 67.0625C80.916 67.5421 80.3054 67.9388 79.6043 68.2258C78.9031 68.5128 78.1278 68.6834 77.331 68.7259C76.5342 68.7684 75.7345 68.6819 74.9862 68.4722C74.2379 68.2626 73.5585 67.9347 72.9942 67.5108C72.4299 67.0869 71.9939 66.5769 71.7157 66.0155C71.4375 65.4541 71.3237 64.8544 71.382 64.2571L76.9357 64.5618L82.3757 63.6705Z" stroke="white" stroke-width="6" mask="url(#path-29-inside-22_166_238)"/>
<mask id="path-30-inside-23_166_238" fill="white">
<path d="M63.6926 53.6517C63.8632 54.2368 63.8638 54.8425 63.6945 55.4278C63.5252 56.0131 63.1899 56.5642 62.7114 57.0437C62.2328 57.5233 61.6223 57.92 60.9212 58.207C60.22 58.494 59.4447 58.6646 58.6479 58.7071C57.8511 58.7496 57.0513 58.6631 56.3031 58.4534C55.5548 58.2438 54.8754 57.9159 54.3111 57.492C53.7468 57.0681 53.3108 56.5581 53.0326 55.9967C52.7544 55.4353 52.6406 54.8356 52.6989 54.2383L58.2525 54.543L63.6926 53.6517Z"/>
</mask>
<path d="M63.6926 53.6517C63.8632 54.2368 63.8638 54.8425 63.6945 55.4278C63.5252 56.0131 63.1899 56.5642 62.7114 57.0437C62.2328 57.5233 61.6223 57.92 60.9212 58.207C60.22 58.494 59.4447 58.6646 58.6479 58.7071C57.8511 58.7496 57.0513 58.6631 56.3031 58.4534C55.5548 58.2438 54.8754 57.9159 54.3111 57.492C53.7468 57.0681 53.3108 56.5581 53.0326 55.9967C52.7544 55.4353 52.6406 54.8356 52.6989 54.2383L58.2525 54.543L63.6926 53.6517Z" stroke="white" stroke-width="6" mask="url(#path-30-inside-23_166_238)"/>
<mask id="path-31-inside-24_166_238" fill="white">
<path d="M96.1643 50.3118C96.3348 50.8969 96.3355 51.5027 96.1662 52.0879C95.9969 52.6732 95.6616 53.2243 95.1831 53.7039C94.7045 54.1834 94.094 54.5802 93.3928 54.8672C92.6917 55.1542 91.9164 55.3247 91.1196 55.3672C90.3227 55.4098 89.523 55.3233 88.7747 55.1136C88.0264 54.9039 87.3471 54.576 86.7828 54.1521C86.2185 53.7282 85.7824 53.2182 85.5043 52.6568C85.2261 52.0954 85.1123 51.4957 85.1706 50.8985L90.7242 51.2032L96.1643 50.3118Z"/>
</mask>
<path d="M96.1643 50.3118C96.3348 50.8969 96.3355 51.5027 96.1662 52.0879C95.9969 52.6732 95.6616 53.2243 95.1831 53.7039C94.7045 54.1834 94.094 54.5802 93.3928 54.8672C92.6917 55.1542 91.9164 55.3247 91.1196 55.3672C90.3227 55.4098 89.523 55.3233 88.7747 55.1136C88.0264 54.9039 87.3471 54.576 86.7828 54.1521C86.2185 53.7282 85.7824 53.2182 85.5043 52.6568C85.2261 52.0954 85.1123 51.4957 85.1706 50.8985L90.7242 51.2032L96.1643 50.3118Z" stroke="white" stroke-width="6" mask="url(#path-31-inside-24_166_238)"/>
<mask id="path-32-inside-25_166_238" fill="white">
<path d="M82.906 48.6422C83.0765 49.2272 83.0772 49.833 82.9079 50.4183C82.7386 51.0035 82.4033 51.5547 81.9248 52.0342C81.4462 52.5137 80.8357 52.9105 80.1345 53.1975C79.4334 53.4845 78.6581 53.6551 77.8613 53.6976C77.0644 53.7401 76.2647 53.6536 75.5164 53.4439C74.7681 53.2342 74.0888 52.9063 73.5245 52.4824C72.9602 52.0585 72.5241 51.5486 72.246 50.9872C71.9678 50.4258 71.854 49.8261 71.9123 49.2288L77.4659 49.5335L82.906 48.6422Z"/>
</mask>
<path d="M82.906 48.6422C83.0765 49.2272 83.0772 49.833 82.9079 50.4183C82.7386 51.0035 82.4033 51.5547 81.9248 52.0342C81.4462 52.5137 80.8357 52.9105 80.1345 53.1975C79.4334 53.4845 78.6581 53.6551 77.8613 53.6976C77.0644 53.7401 76.2647 53.6536 75.5164 53.4439C74.7681 53.2342 74.0888 52.9063 73.5245 52.4824C72.9602 52.0585 72.5241 51.5486 72.246 50.9872C71.9678 50.4258 71.854 49.8261 71.9123 49.2288L77.4659 49.5335L82.906 48.6422Z" stroke="white" stroke-width="6" mask="url(#path-32-inside-25_166_238)"/>
<mask id="path-33-inside-26_166_238" fill="white">
<path d="M112.604 70.3502C112.775 70.9352 112.775 71.541 112.606 72.1263C112.437 72.7115 112.102 73.2627 111.623 73.7422C111.144 74.2218 110.534 74.6185 109.833 74.9055C109.132 75.1925 108.356 75.3631 107.56 75.4056C106.763 75.4481 105.963 75.3616 105.215 75.1519C104.466 74.9423 103.787 74.6143 103.223 74.1904C102.658 73.7665 102.222 73.2566 101.944 72.6952C101.666 72.1338 101.552 71.5341 101.611 70.9368L107.164 71.2415L112.604 70.3502Z"/>
</mask>
<path d="M112.604 70.3502C112.775 70.9352 112.775 71.541 112.606 72.1263C112.437 72.7115 112.102 73.2627 111.623 73.7422C111.144 74.2218 110.534 74.6185 109.833 74.9055C109.132 75.1925 108.356 75.3631 107.56 75.4056C106.763 75.4481 105.963 75.3616 105.215 75.1519C104.466 74.9423 103.787 74.6143 103.223 74.1904C102.658 73.7665 102.222 73.2566 101.944 72.6952C101.666 72.1338 101.552 71.5341 101.611 70.9368L107.164 71.2415L112.604 70.3502Z" stroke="white" stroke-width="6" mask="url(#path-33-inside-26_166_238)"/>
<mask id="path-34-inside-27_166_238" fill="white">
<path d="M127.453 86.2135C127.624 86.7985 127.625 87.4043 127.455 87.9895C127.286 88.5748 126.951 89.1259 126.472 89.6055C125.994 90.085 125.383 90.4818 124.682 90.7688C123.981 91.0558 123.205 91.2263 122.409 91.2689C121.612 91.3114 120.812 91.2249 120.064 91.0152C119.316 90.8055 118.636 90.4776 118.072 90.0537C117.508 89.6298 117.072 89.1199 116.793 88.5585C116.515 87.9971 116.401 87.3974 116.46 86.8001L122.013 87.1048L127.453 86.2135Z"/>
</mask>
<path d="M127.453 86.2135C127.624 86.7985 127.625 87.4043 127.455 87.9895C127.286 88.5748 126.951 89.1259 126.472 89.6055C125.994 90.085 125.383 90.4818 124.682 90.7688C123.981 91.0558 123.205 91.2263 122.409 91.2689C121.612 91.3114 120.812 91.2249 120.064 91.0152C119.316 90.8055 118.636 90.4776 118.072 90.0537C117.508 89.6298 117.072 89.1199 116.793 88.5585C116.515 87.9971 116.401 87.3974 116.46 86.8001L122.013 87.1048L127.453 86.2135Z" stroke="white" stroke-width="6" mask="url(#path-34-inside-27_166_238)"/>
<mask id="path-35-inside-28_166_238" fill="white">
<path d="M96.6946 65.3407C96.8651 65.9257 96.8658 66.5315 96.6965 67.1167C96.5272 67.702 96.1919 68.2531 95.7133 68.7327C95.2348 69.2122 94.6242 69.609 93.9231 69.896C93.222 70.183 92.4467 70.3535 91.6498 70.3961C90.853 70.4386 90.0533 70.3521 89.305 70.1424C88.5567 69.9327 87.8774 69.6048 87.3131 69.1809C86.7488 68.757 86.3127 68.2471 86.0345 67.6857C85.7564 67.1242 85.6426 66.5245 85.7009 65.9273L91.2545 66.232L96.6946 65.3407Z"/>
</mask>
<path d="M96.6946 65.3407C96.8651 65.9257 96.8658 66.5315 96.6965 67.1167C96.5272 67.702 96.1919 68.2531 95.7133 68.7327C95.2348 69.2122 94.6242 69.609 93.9231 69.896C93.222 70.183 92.4467 70.3535 91.6498 70.3961C90.853 70.4386 90.0533 70.3521 89.305 70.1424C88.5567 69.9327 87.8774 69.6048 87.3131 69.1809C86.7488 68.757 86.3127 68.2471 86.0345 67.6857C85.7564 67.1242 85.6426 66.5245 85.7009 65.9273L91.2545 66.232L96.6946 65.3407Z" stroke="white" stroke-width="6" mask="url(#path-35-inside-28_166_238)"/>
<mask id="path-36-inside-29_166_238" fill="white">
<path d="M109.423 81.2042C109.593 81.7893 109.594 82.395 109.424 82.9803C109.255 83.5655 108.92 84.1167 108.441 84.5962C107.963 85.0758 107.352 85.4725 106.651 85.7595C105.95 86.0465 105.175 86.2171 104.378 86.2596C103.581 86.3021 102.781 86.2156 102.033 86.0059C101.285 85.7963 100.605 85.4683 100.041 85.0444C99.4768 84.6205 99.0407 84.1106 98.7626 83.5492C98.4844 82.9878 98.3706 82.3881 98.4289 81.7908L103.983 82.0955L109.423 81.2042Z"/>
</mask>
<path d="M109.423 81.2042C109.593 81.7893 109.594 82.395 109.424 82.9803C109.255 83.5655 108.92 84.1167 108.441 84.5962C107.963 85.0758 107.352 85.4725 106.651 85.7595C105.95 86.0465 105.175 86.2171 104.378 86.2596C103.581 86.3021 102.781 86.2156 102.033 86.0059C101.285 85.7963 100.605 85.4683 100.041 85.0444C99.4768 84.6205 99.0407 84.1106 98.7626 83.5492C98.4844 82.9878 98.3706 82.3881 98.4289 81.7908L103.983 82.0955L109.423 81.2042Z" stroke="white" stroke-width="6" mask="url(#path-36-inside-29_166_238)"/>
<mask id="path-37-inside-30_166_238" fill="white">
<path d="M72.8298 51.1468C73.0004 51.7319 73.001 52.3376 72.8317 52.9229C72.6624 53.5082 72.3271 54.0593 71.8486 54.5388C71.3701 55.0184 70.7595 55.4151 70.0584 55.7021C69.3572 55.9891 68.5819 56.1597 67.7851 56.2022C66.9883 56.2447 66.1886 56.1582 65.4403 55.9486C64.692 55.7389 64.0126 55.411 63.4483 54.9871C62.884 54.5632 62.448 54.0532 62.1698 53.4918C61.8916 52.9304 61.7778 52.3307 61.8361 51.7334L67.3898 52.0381L72.8298 51.1468Z"/>
</mask>
<path d="M72.8298 51.1468C73.0004 51.7319 73.001 52.3376 72.8317 52.9229C72.6624 53.5082 72.3271 54.0593 71.8486 54.5388C71.3701 55.0184 70.7595 55.4151 70.0584 55.7021C69.3572 55.9891 68.5819 56.1597 67.7851 56.2022C66.9883 56.2447 66.1886 56.1582 65.4403 55.9486C64.692 55.7389 64.0126 55.411 63.4483 54.9871C62.884 54.5632 62.448 54.0532 62.1698 53.4918C61.8916 52.9304 61.7778 52.3307 61.8361 51.7334L67.3898 52.0381L72.8298 51.1468Z" stroke="white" stroke-width="6" mask="url(#path-37-inside-30_166_238)"/>
<mask id="path-38-inside-31_166_238" fill="white">
<path d="M86.0876 67.8455C86.2582 68.4306 86.2588 69.0363 86.0895 69.6216C85.9202 70.2069 85.5849 70.758 85.1064 71.2376C84.6279 71.7171 84.0173 72.1139 83.3162 72.4009C82.615 72.6879 81.8397 72.8584 81.0429 72.9009C80.2461 72.9435 79.4464 72.8569 78.6981 72.6473C77.9498 72.4376 77.2704 72.1097 76.7061 71.6858C76.1418 71.2619 75.7058 70.7519 75.4276 70.1905C75.1494 69.6291 75.0356 69.0294 75.094 68.4321L80.6476 68.7369L86.0876 67.8455Z"/>
</mask>
<path d="M86.0876 67.8455C86.2582 68.4306 86.2588 69.0363 86.0895 69.6216C85.9202 70.2069 85.5849 70.758 85.1064 71.2376C84.6279 71.7171 84.0173 72.1139 83.3162 72.4009C82.615 72.6879 81.8397 72.8584 81.0429 72.9009C80.2461 72.9435 79.4464 72.8569 78.6981 72.6473C77.9498 72.4376 77.2704 72.1097 76.7061 71.6858C76.1418 71.2619 75.7058 70.7519 75.4276 70.1905C75.1494 69.6291 75.0356 69.0294 75.094 68.4321L80.6476 68.7369L86.0876 67.8455Z" stroke="white" stroke-width="6" mask="url(#path-38-inside-31_166_238)"/>
<mask id="path-39-inside-32_166_238" fill="white">
<path d="M65.405 57.8262C65.5756 58.4113 65.5762 59.0171 65.4069 59.6023C65.2376 60.1876 64.9023 60.7387 64.4238 61.2183C63.9452 61.6978 63.3347 62.0946 62.6336 62.3816C61.9324 62.6686 61.1571 62.8391 60.3603 62.8817C59.5635 62.9242 58.7637 62.8377 58.0155 62.628C57.2672 62.4183 56.5878 62.0904 56.0235 61.6665C55.4592 61.2426 55.0232 60.7327 54.745 60.1712C54.4668 59.6098 54.353 59.0101 54.4113 58.4129L59.9649 58.7176L65.405 57.8262Z"/>
</mask>
<path d="M65.405 57.8262C65.5756 58.4113 65.5762 59.0171 65.4069 59.6023C65.2376 60.1876 64.9023 60.7387 64.4238 61.2183C63.9452 61.6978 63.3347 62.0946 62.6336 62.3816C61.9324 62.6686 61.1571 62.8391 60.3603 62.8817C59.5635 62.9242 58.7637 62.8377 58.0155 62.628C57.2672 62.4183 56.5878 62.0904 56.0235 61.6665C55.4592 61.2426 55.0232 60.7327 54.745 60.1712C54.4668 59.6098 54.353 59.0101 54.4113 58.4129L59.9649 58.7176L65.405 57.8262Z" stroke="white" stroke-width="6" mask="url(#path-39-inside-32_166_238)"/>
<mask id="path-40-inside-33_166_238" fill="white">
<path d="M99.8762 54.4864C100.047 55.0715 100.047 55.6772 99.8781 56.2625C99.7088 56.8478 99.3735 57.3989 98.895 57.8784C98.4164 58.358 97.8059 58.7547 97.1047 59.0417C96.4036 59.3287 95.6283 59.4993 94.8315 59.5418C94.0346 59.5843 93.2349 59.4978 92.4866 59.2882C91.7384 59.0785 91.059 58.7506 90.4947 58.3267C89.9304 57.9028 89.4944 57.3928 89.2162 56.8314C88.938 56.27 88.8242 55.6703 88.8825 55.073L94.4361 55.3777L99.8762 54.4864Z"/>
</mask>
<path d="M99.8762 54.4864C100.047 55.0715 100.047 55.6772 99.8781 56.2625C99.7088 56.8478 99.3735 57.3989 98.895 57.8784C98.4164 58.358 97.8059 58.7547 97.1047 59.0417C96.4036 59.3287 95.6283 59.4993 94.8315 59.5418C94.0346 59.5843 93.2349 59.4978 92.4866 59.2882C91.7384 59.0785 91.059 58.7506 90.4947 58.3267C89.9304 57.9028 89.4944 57.3928 89.2162 56.8314C88.938 56.27 88.8242 55.6703 88.8825 55.073L94.4361 55.3777L99.8762 54.4864Z" stroke="white" stroke-width="6" mask="url(#path-40-inside-33_166_238)"/>
<mask id="path-41-inside-34_166_238" fill="white">
<path d="M86.6179 52.8167C86.7885 53.4018 86.7891 54.0075 86.6198 54.5928C86.4505 55.1781 86.1152 55.7292 85.6367 56.2088C85.1581 56.6883 84.5476 57.085 83.8464 57.3721C83.1453 57.6591 82.37 57.8296 81.5732 57.8721C80.7763 57.9147 79.9766 57.8281 79.2283 57.6185C78.4801 57.4088 77.8007 57.0809 77.2364 56.657C76.6721 56.2331 76.2361 55.7231 75.9579 55.1617C75.6797 54.6003 75.5659 54.0006 75.6242 53.4033L81.1778 53.7081L86.6179 52.8167Z"/>
</mask>
<path d="M86.6179 52.8167C86.7885 53.4018 86.7891 54.0075 86.6198 54.5928C86.4505 55.1781 86.1152 55.7292 85.6367 56.2088C85.1581 56.6883 84.5476 57.085 83.8464 57.3721C83.1453 57.6591 82.37 57.8296 81.5732 57.8721C80.7763 57.9147 79.9766 57.8281 79.2283 57.6185C78.4801 57.4088 77.8007 57.0809 77.2364 56.657C76.6721 56.2331 76.2361 55.7231 75.9579 55.1617C75.6797 54.6003 75.5659 54.0006 75.6242 53.4033L81.1778 53.7081L86.6179 52.8167Z" stroke="white" stroke-width="6" mask="url(#path-41-inside-34_166_238)"/>
<mask id="path-42-inside-35_166_238" fill="white">
<path d="M114.833 73.6959C115.026 74.2634 115.05 74.868 114.904 75.4685C114.758 76.069 114.444 76.6514 113.985 77.1762C113.526 77.7009 112.932 78.1558 112.244 78.5099C111.555 78.8639 110.788 79.1089 109.994 79.2281C109.201 79.3474 108.399 79.3381 107.644 79.201C106.889 79.0638 106.198 78.802 105.618 78.4333C105.039 78.0646 104.584 77.5976 104.284 77.0641C103.985 76.5306 103.848 75.943 103.883 75.3412L109.438 75.11L114.833 73.6959Z"/>
</mask>
<path d="M114.833 73.6959C115.026 74.2634 115.05 74.868 114.904 75.4685C114.758 76.069 114.444 76.6514 113.985 77.1762C113.526 77.7009 112.932 78.1558 112.244 78.5099C111.555 78.8639 110.788 79.1089 109.994 79.2281C109.201 79.3474 108.399 79.3381 107.644 79.201C106.889 79.0638 106.198 78.802 105.618 78.4333C105.039 78.0646 104.584 77.5976 104.284 77.0641C103.985 76.5306 103.848 75.943 103.883 75.3412L109.438 75.11L114.833 73.6959Z" stroke="white" stroke-width="6" mask="url(#path-42-inside-35_166_238)"/>
<mask id="path-43-inside-36_166_238" fill="white">
<path d="M129.682 89.5597C129.875 90.1272 129.899 90.7318 129.753 91.3323C129.607 91.9328 129.293 92.5152 128.835 93.0399C128.376 93.5647 127.782 94.0196 127.093 94.3736C126.404 94.7277 125.637 94.9726 124.843 95.0919C124.05 95.2111 123.248 95.2019 122.493 95.0647C121.738 94.9276 121.047 94.6658 120.467 94.2971C119.888 93.9284 119.433 93.4614 119.133 92.9279C118.834 92.3943 118.697 91.8067 118.732 91.2049L124.287 90.9737L129.682 89.5597Z"/>
</mask>
<path d="M129.682 89.5597C129.875 90.1272 129.899 90.7318 129.753 91.3323C129.607 91.9328 129.293 92.5152 128.835 93.0399C128.376 93.5647 127.782 94.0196 127.093 94.3736C126.404 94.7277 125.637 94.9726 124.843 95.0919C124.05 95.2111 123.248 95.2019 122.493 95.0647C121.738 94.9276 121.047 94.6658 120.467 94.2971C119.888 93.9284 119.433 93.4614 119.133 92.9279C118.834 92.3943 118.697 91.8067 118.732 91.2049L124.287 90.9737L129.682 89.5597Z" stroke="white" stroke-width="6" mask="url(#path-43-inside-36_166_238)"/>
<mask id="path-44-inside-37_166_238" fill="white">
<path d="M98.9227 68.6864C99.1157 69.2539 99.1399 69.8585 98.9937 70.459C98.8474 71.0595 98.5342 71.6419 98.0752 72.1666C97.6162 72.6914 97.0223 73.1463 96.3336 73.5003C95.6449 73.8544 94.8777 74.0994 94.0841 74.2186C93.2904 74.3379 92.4888 74.3286 91.7338 74.1915C90.9787 74.0543 90.2879 73.7925 89.7081 73.4238C89.1284 73.0551 88.6734 72.5881 88.3739 72.0546C88.0744 71.521 87.9375 70.9334 87.9725 70.3317L93.5275 70.1005L98.9227 68.6864Z"/>
</mask>
<path d="M98.9227 68.6864C99.1157 69.2539 99.1399 69.8585 98.9937 70.459C98.8474 71.0595 98.5342 71.6419 98.0752 72.1666C97.6162 72.6914 97.0223 73.1463 96.3336 73.5003C95.6449 73.8544 94.8777 74.0994 94.0841 74.2186C93.2904 74.3379 92.4888 74.3286 91.7338 74.1915C90.9787 74.0543 90.2879 73.7925 89.7081 73.4238C89.1284 73.0551 88.6734 72.5881 88.3739 72.0546C88.0744 71.521 87.9375 70.9334 87.9725 70.3317L93.5275 70.1005L98.9227 68.6864Z" stroke="white" stroke-width="6" mask="url(#path-44-inside-37_166_238)"/>
<mask id="path-45-inside-38_166_238" fill="white">
<path d="M113.242 84.5499C113.435 85.1174 113.459 85.722 113.313 86.3225C113.166 86.923 112.853 87.5054 112.394 88.0302C111.935 88.5549 111.341 89.0098 110.652 89.3639C109.964 89.7179 109.197 89.9629 108.403 90.0821C107.609 90.2014 106.808 90.1921 106.053 90.055C105.298 89.9178 104.607 89.656 104.027 89.2873C103.447 88.9186 102.992 88.4516 102.693 87.9181C102.393 87.3846 102.256 86.797 102.291 86.1952L107.846 85.964L113.242 84.5499Z"/>
</mask>
<path d="M113.242 84.5499C113.435 85.1174 113.459 85.722 113.313 86.3225C113.166 86.923 112.853 87.5054 112.394 88.0302C111.935 88.5549 111.341 89.0098 110.652 89.3639C109.964 89.7179 109.197 89.9629 108.403 90.0821C107.609 90.2014 106.808 90.1921 106.053 90.055C105.298 89.9178 104.607 89.656 104.027 89.2873C103.447 88.9186 102.992 88.4516 102.693 87.9181C102.393 87.3846 102.256 86.797 102.291 86.1952L107.846 85.964L113.242 84.5499Z" stroke="white" stroke-width="6" mask="url(#path-45-inside-38_166_238)"/>
<mask id="path-46-inside-39_166_238" fill="white">
<path d="M75.0579 54.4928C75.2509 55.0603 75.2752 55.6649 75.1289 56.2654C74.9827 56.8659 74.6695 57.4483 74.2105 57.973C73.7515 58.4978 73.1575 58.9527 72.4689 59.3067C71.7802 59.6608 71.013 59.9058 70.2193 60.025C69.4256 60.1443 68.6241 60.135 67.869 59.9979C67.114 59.8607 66.4231 59.5989 65.8434 59.2302C65.2637 58.8615 64.8086 58.3945 64.5091 57.861C64.2096 57.3274 64.0727 56.7398 64.1077 56.138L69.6628 55.9068L75.0579 54.4928Z"/>
</mask>
<path d="M75.0579 54.4928C75.2509 55.0603 75.2752 55.6649 75.1289 56.2654C74.9827 56.8659 74.6695 57.4483 74.2105 57.973C73.7515 58.4978 73.1575 58.9527 72.4689 59.3067C71.7802 59.6608 71.013 59.9058 70.2193 60.025C69.4256 60.1443 68.6241 60.135 67.869 59.9979C67.114 59.8607 66.4231 59.5989 65.8434 59.2302C65.2637 58.8615 64.8086 58.3945 64.5091 57.861C64.2096 57.3274 64.0727 56.7398 64.1077 56.138L69.6628 55.9068L75.0579 54.4928Z" stroke="white" stroke-width="6" mask="url(#path-46-inside-39_166_238)"/>
<mask id="path-47-inside-40_166_238" fill="white">
<path d="M88.3162 71.1913C88.5092 71.7588 88.5335 72.3633 88.3872 72.9638C88.241 73.5644 87.9278 74.1468 87.4688 74.6715C87.0098 75.1963 86.4158 75.6512 85.7272 76.0052C85.0385 76.3593 84.2713 76.6042 83.4776 76.7235C82.6839 76.8427 81.8824 76.8335 81.1273 76.6963C80.3723 76.5592 79.6814 76.2974 79.1017 75.9287C78.522 75.56 78.0669 75.093 77.7674 74.5595C77.468 74.0259 77.331 73.4383 77.366 72.8365L82.9211 72.6053L88.3162 71.1913Z"/>
</mask>
<path d="M88.3162 71.1913C88.5092 71.7588 88.5335 72.3633 88.3872 72.9638C88.241 73.5644 87.9278 74.1468 87.4688 74.6715C87.0098 75.1963 86.4158 75.6512 85.7272 76.0052C85.0385 76.3593 84.2713 76.6042 83.4776 76.7235C82.6839 76.8427 81.8824 76.8335 81.1273 76.6963C80.3723 76.5592 79.6814 76.2974 79.1017 75.9287C78.522 75.56 78.0669 75.093 77.7674 74.5595C77.468 74.0259 77.331 73.4383 77.366 72.8365L82.9211 72.6053L88.3162 71.1913Z" stroke="white" stroke-width="6" mask="url(#path-47-inside-40_166_238)"/>
<mask id="path-48-inside-41_166_238" fill="white">
<path d="M67.6382 61.3012C67.8321 61.8917 67.8572 62.52 67.7119 63.1435C67.5665 63.767 67.2541 64.3711 66.7959 64.9147C66.3376 65.4583 65.7443 65.9287 65.056 66.2941C64.3678 66.6594 63.6009 66.911 62.8073 67.032C62.0136 67.1529 61.2119 67.1402 60.4566 66.9949C59.7012 66.8495 59.0099 66.5748 58.4295 66.1894C57.8491 65.8041 57.3933 65.3171 57.0929 64.7615C56.7926 64.2059 56.6548 63.5947 56.6888 62.9695L62.2443 62.7503L67.6382 61.3012Z"/>
</mask>
<path d="M67.6382 61.3012C67.8321 61.8917 67.8572 62.52 67.7119 63.1435C67.5665 63.767 67.2541 64.3711 66.7959 64.9147C66.3376 65.4583 65.7443 65.9287 65.056 66.2941C64.3678 66.6594 63.6009 66.911 62.8073 67.032C62.0136 67.1529 61.2119 67.1402 60.4566 66.9949C59.7012 66.8495 59.0099 66.5748 58.4295 66.1894C57.8491 65.8041 57.3933 65.3171 57.0929 64.7615C56.7926 64.2059 56.6548 63.5947 56.6888 62.9695L62.2443 62.7503L67.6382 61.3012Z" stroke="white" stroke-width="6" mask="url(#path-48-inside-41_166_238)"/>
<mask id="path-49-inside-42_166_238" fill="white">
<path d="M90.8606 29.4388C91.0311 30.0239 91.0318 30.6296 90.8625 31.2149C90.6932 31.8002 90.3579 32.3513 89.8793 32.8308C89.4008 33.3104 88.7903 33.7071 88.0891 33.9941C87.388 34.2811 86.6127 34.4517 85.8159 34.4942C85.019 34.5367 84.2193 34.4502 83.471 34.2405C82.7227 34.0309 82.0434 33.703 81.4791 33.2791C80.9148 32.8552 80.4787 32.3452 80.2006 31.7838C79.9224 31.2224 79.8086 30.6227 79.8669 30.0254L85.4205 30.3301L90.8606 29.4388Z"/>
</mask>
<path d="M90.8606 29.4388C91.0311 30.0239 91.0318 30.6296 90.8625 31.2149C90.6932 31.8002 90.3579 32.3513 89.8793 32.8308C89.4008 33.3104 88.7903 33.7071 88.0891 33.9941C87.388 34.2811 86.6127 34.4517 85.8159 34.4942C85.019 34.5367 84.2193 34.4502 83.471 34.2405C82.7227 34.0309 82.0434 33.703 81.4791 33.2791C80.9148 32.8552 80.4787 32.3452 80.2006 31.7838C79.9224 31.2224 79.8086 30.6227 79.8669 30.0254L85.4205 30.3301L90.8606 29.4388Z" stroke="white" stroke-width="6" mask="url(#path-49-inside-42_166_238)"/>
<mask id="path-50-inside-43_166_238" fill="white">
<path d="M108.362 50.3118C108.533 50.8969 108.533 51.5027 108.364 52.0879C108.195 52.6732 107.859 53.2243 107.381 53.7039C106.902 54.1834 106.292 54.5802 105.591 54.8672C104.889 55.1542 104.114 55.3247 103.317 55.3672C102.52 55.4098 101.721 55.3233 100.972 55.1136C100.224 54.9039 99.5448 54.576 98.9805 54.1521C98.4162 53.7282 97.9802 53.2182 97.702 52.6568C97.4239 52.0954 97.3101 51.4957 97.3684 50.8985L102.922 51.2032L108.362 50.3118Z"/>
</mask>
<path d="M108.362 50.3118C108.533 50.8969 108.533 51.5027 108.364 52.0879C108.195 52.6732 107.859 53.2243 107.381 53.7039C106.902 54.1834 106.292 54.5802 105.591 54.8672C104.889 55.1542 104.114 55.3247 103.317 55.3672C102.52 55.4098 101.721 55.3233 100.972 55.1136C100.224 54.9039 99.5448 54.576 98.9805 54.1521C98.4162 53.7282 97.9802 53.2182 97.702 52.6568C97.4239 52.0954 97.3101 51.4957 97.3684 50.8985L102.922 51.2032L108.362 50.3118Z" stroke="white" stroke-width="6" mask="url(#path-50-inside-43_166_238)"/>
<mask id="path-51-inside-44_166_238" fill="white">
<path d="M133.818 78.6993C133.988 79.2844 133.989 79.8901 133.82 80.4754C133.65 81.0607 133.315 81.6118 132.836 82.0913C132.358 82.5709 131.747 82.9676 131.046 83.2546C130.345 83.5416 129.57 83.7122 128.773 83.7547C127.976 83.7972 127.176 83.7107 126.428 83.501C125.68 83.2914 125 82.9635 124.436 82.5396C123.872 82.1157 123.436 81.6057 123.158 81.0443C122.879 80.4829 122.766 79.8832 122.824 79.2859L128.378 79.5906L133.818 78.6993Z"/>
</mask>
<path d="M133.818 78.6993C133.988 79.2844 133.989 79.8901 133.82 80.4754C133.65 81.0607 133.315 81.6118 132.836 82.0913C132.358 82.5709 131.747 82.9676 131.046 83.2546C130.345 83.5416 129.57 83.7122 128.773 83.7547C127.976 83.7972 127.176 83.7107 126.428 83.501C125.68 83.2914 125 82.9635 124.436 82.5396C123.872 82.1157 123.436 81.6057 123.158 81.0443C122.879 80.4829 122.766 79.8832 122.824 79.2859L128.378 79.5906L133.818 78.6993Z" stroke="white" stroke-width="6" mask="url(#path-51-inside-44_166_238)"/>
<mask id="path-52-inside-45_166_238" fill="white">
<path d="M94.5735 33.6134C94.744 34.1984 94.7447 34.8042 94.5754 35.3894C94.4061 35.9747 94.0708 36.5258 93.5922 37.0054C93.1137 37.4849 92.5031 37.8817 91.802 38.1687C91.1009 38.4557 90.3256 38.6262 89.5287 38.6688C88.7319 38.7113 87.9322 38.6248 87.1839 38.4151C86.4356 38.2054 85.7563 37.8775 85.192 37.4536C84.6277 37.0297 84.1916 36.5198 83.9134 35.9584C83.6353 35.397 83.5215 34.7973 83.5798 34.2L89.1334 34.5047L94.5735 33.6134Z"/>
</mask>
<path d="M94.5735 33.6134C94.744 34.1984 94.7447 34.8042 94.5754 35.3894C94.4061 35.9747 94.0708 36.5258 93.5922 37.0054C93.1137 37.4849 92.5031 37.8817 91.802 38.1687C91.1009 38.4557 90.3256 38.6262 89.5287 38.6688C88.7319 38.7113 87.9322 38.6248 87.1839 38.4151C86.4356 38.2054 85.7563 37.8775 85.192 37.4536C84.6277 37.0297 84.1916 36.5198 83.9134 35.9584C83.6353 35.397 83.5215 34.7973 83.5798 34.2L89.1334 34.5047L94.5735 33.6134Z" stroke="white" stroke-width="6" mask="url(#path-52-inside-45_166_238)"/>
<mask id="path-53-inside-46_166_238" fill="white">
<path d="M112.074 54.4864C112.245 55.0715 112.245 55.6772 112.076 56.2625C111.907 56.8478 111.571 57.3989 111.093 57.8784C110.614 58.358 110.004 58.7547 109.302 59.0417C108.601 59.3287 107.826 59.4993 107.029 59.5418C106.232 59.5843 105.433 59.4978 104.684 59.2882C103.936 59.0785 103.257 58.7506 102.692 58.3267C102.128 57.9028 101.692 57.3928 101.414 56.8314C101.136 56.27 101.022 55.6703 101.08 55.073L106.634 55.3777L112.074 54.4864Z"/>
</mask>
<path d="M112.074 54.4864C112.245 55.0715 112.245 55.6772 112.076 56.2625C111.907 56.8478 111.571 57.3989 111.093 57.8784C110.614 58.358 110.004 58.7547 109.302 59.0417C108.601 59.3287 107.826 59.4993 107.029 59.5418C106.232 59.5843 105.433 59.4978 104.684 59.2882C103.936 59.0785 103.257 58.7506 102.692 58.3267C102.128 57.9028 101.692 57.3928 101.414 56.8314C101.136 56.27 101.022 55.6703 101.08 55.073L106.634 55.3777L112.074 54.4864Z" stroke="white" stroke-width="6" mask="url(#path-53-inside-46_166_238)"/>
<mask id="path-54-inside-47_166_238" fill="white">
<path d="M137.53 82.8741C137.7 83.4592 137.701 84.0649 137.531 84.6502C137.362 85.2355 137.027 85.7866 136.548 86.2661C136.07 86.7457 135.459 87.1424 134.758 87.4294C134.057 87.7164 133.282 87.887 132.485 87.9295C131.688 87.972 130.888 87.8855 130.14 87.6758C129.392 87.4662 128.712 87.1383 128.148 86.7144C127.584 86.2905 127.148 85.7805 126.87 85.2191C126.591 84.6577 126.478 84.058 126.536 83.4607L132.089 83.7654L137.53 82.8741Z"/>
</mask>
<path d="M137.53 82.8741C137.7 83.4592 137.701 84.0649 137.531 84.6502C137.362 85.2355 137.027 85.7866 136.548 86.2661C136.07 86.7457 135.459 87.1424 134.758 87.4294C134.057 87.7164 133.282 87.887 132.485 87.9295C131.688 87.972 130.888 87.8855 130.14 87.6758C129.392 87.4662 128.712 87.1383 128.148 86.7144C127.584 86.2905 127.148 85.7805 126.87 85.2191C126.591 84.6577 126.478 84.058 126.536 83.4607L132.089 83.7654L137.53 82.8741Z" stroke="white" stroke-width="6" mask="url(#path-54-inside-47_166_238)"/>
<mask id="path-55-inside-48_166_238" fill="white">
<path d="M97.7551 37.7882C97.9257 38.3732 97.9263 38.979 97.757 39.5643C97.5877 40.1495 97.2524 40.7007 96.7739 41.1802C96.2953 41.6597 95.6848 42.0565 94.9837 42.3435C94.2825 42.6305 93.5072 42.8011 92.7104 42.8436C91.9136 42.8861 91.1138 42.7996 90.3656 42.5899C89.6173 42.3802 88.9379 42.0523 88.3736 41.6284C87.8093 41.2045 87.3733 40.6946 87.0951 40.1332C86.8169 39.5718 86.7031 38.9721 86.7614 38.3748L92.315 38.6795L97.7551 37.7882Z"/>
</mask>
<path d="M97.7551 37.7882C97.9257 38.3732 97.9263 38.979 97.757 39.5643C97.5877 40.1495 97.2524 40.7007 96.7739 41.1802C96.2953 41.6597 95.6848 42.0565 94.9837 42.3435C94.2825 42.6305 93.5072 42.8011 92.7104 42.8436C91.9136 42.8861 91.1138 42.7996 90.3656 42.5899C89.6173 42.3802 88.9379 42.0523 88.3736 41.6284C87.8093 41.2045 87.3733 40.6946 87.0951 40.1332C86.8169 39.5718 86.7031 38.9721 86.7614 38.3748L92.315 38.6795L97.7551 37.7882Z" stroke="white" stroke-width="6" mask="url(#path-55-inside-48_166_238)"/>
<mask id="path-56-inside-49_166_238" fill="white">
<path d="M115.256 58.6612C115.427 59.2463 115.427 59.852 115.258 60.4373C115.089 61.0226 114.753 61.5737 114.275 62.0532C113.796 62.5328 113.186 62.9295 112.485 63.2165C111.783 63.5035 111.008 63.6741 110.211 63.7166C109.415 63.7591 108.615 63.6726 107.867 63.463C107.118 63.2533 106.439 62.9254 105.875 62.5015C105.31 62.0776 104.874 61.5676 104.596 61.0062C104.318 60.4448 104.204 59.8451 104.262 59.2478L109.816 59.5525L115.256 58.6612Z"/>
</mask>
<path d="M115.256 58.6612C115.427 59.2463 115.427 59.852 115.258 60.4373C115.089 61.0226 114.753 61.5737 114.275 62.0532C113.796 62.5328 113.186 62.9295 112.485 63.2165C111.783 63.5035 111.008 63.6741 110.211 63.7166C109.415 63.7591 108.615 63.6726 107.867 63.463C107.118 63.2533 106.439 62.9254 105.875 62.5015C105.31 62.0776 104.874 61.5676 104.596 61.0062C104.318 60.4448 104.204 59.8451 104.262 59.2478L109.816 59.5525L115.256 58.6612Z" stroke="white" stroke-width="6" mask="url(#path-56-inside-49_166_238)"/>
<mask id="path-57-inside-50_166_238" fill="white">
<path d="M140.712 87.0484C140.882 87.6335 140.883 88.2392 140.714 88.8245C140.544 89.4098 140.209 89.9609 139.73 90.4405C139.252 90.92 138.641 91.3167 137.94 91.6037C137.239 91.8908 136.464 92.0613 135.667 92.1038C134.87 92.1463 134.07 92.0598 133.322 91.8502C132.574 91.6405 131.894 91.3126 131.33 90.8887C130.766 90.4648 130.33 89.9548 130.052 89.3934C129.773 88.832 129.66 88.2323 129.718 87.635L135.272 87.9397L140.712 87.0484Z"/>
</mask>
<path d="M140.712 87.0484C140.882 87.6335 140.883 88.2392 140.714 88.8245C140.544 89.4098 140.209 89.9609 139.73 90.4405C139.252 90.92 138.641 91.3167 137.94 91.6037C137.239 91.8908 136.464 92.0613 135.667 92.1038C134.87 92.1463 134.07 92.0598 133.322 91.8502C132.574 91.6405 131.894 91.3126 131.33 90.8887C130.766 90.4648 130.33 89.9548 130.052 89.3934C129.773 88.832 129.66 88.2323 129.718 87.635L135.272 87.9397L140.712 87.0484Z" stroke="white" stroke-width="6" mask="url(#path-57-inside-50_166_238)"/>
<mask id="path-58-inside-51_166_238" fill="white">
<path d="M100.937 41.9627C101.108 42.5478 101.108 43.1535 100.939 43.7388C100.77 44.3241 100.435 44.8752 99.956 45.3548C99.4775 45.8343 98.8669 46.231 98.1658 46.5181C97.4646 46.8051 96.6893 46.9756 95.8925 47.0181C95.0957 47.0606 94.296 46.9741 93.5477 46.7645C92.7994 46.5548 92.12 46.2269 91.5557 45.803C90.9914 45.3791 90.5554 44.8691 90.2772 44.3077C89.999 43.7463 89.8853 43.1466 89.9436 42.5493L95.4972 42.8541L100.937 41.9627Z"/>
</mask>
<path d="M100.937 41.9627C101.108 42.5478 101.108 43.1535 100.939 43.7388C100.77 44.3241 100.435 44.8752 99.956 45.3548C99.4775 45.8343 98.8669 46.231 98.1658 46.5181C97.4646 46.8051 96.6893 46.9756 95.8925 47.0181C95.0957 47.0606 94.296 46.9741 93.5477 46.7645C92.7994 46.5548 92.12 46.2269 91.5557 45.803C90.9914 45.3791 90.5554 44.8691 90.2772 44.3077C89.999 43.7463 89.8853 43.1466 89.9436 42.5493L95.4972 42.8541L100.937 41.9627Z" stroke="white" stroke-width="6" mask="url(#path-58-inside-51_166_238)"/>
<mask id="path-59-inside-52_166_238" fill="white">
<path d="M126.393 70.3502C126.563 70.9352 126.564 71.541 126.395 72.1263C126.225 72.7115 125.89 73.2627 125.412 73.7422C124.933 74.2218 124.322 74.6185 123.621 74.9055C122.92 75.1925 122.145 75.3631 121.348 75.4056C120.551 75.4481 119.752 75.3616 119.003 75.1519C118.255 74.9423 117.576 74.6143 117.011 74.1904C116.447 73.7665 116.011 73.2566 115.733 72.6952C115.455 72.1338 115.341 71.5341 115.399 70.9368L120.953 71.2415L126.393 70.3502Z"/>
</mask>
<path d="M126.393 70.3502C126.563 70.9352 126.564 71.541 126.395 72.1263C126.225 72.7115 125.89 73.2627 125.412 73.7422C124.933 74.2218 124.322 74.6185 123.621 74.9055C122.92 75.1925 122.145 75.3631 121.348 75.4056C120.551 75.4481 119.752 75.3616 119.003 75.1519C118.255 74.9423 117.576 74.6143 117.011 74.1904C116.447 73.7665 116.011 73.2566 115.733 72.6952C115.455 72.1338 115.341 71.5341 115.399 70.9368L120.953 71.2415L126.393 70.3502Z" stroke="white" stroke-width="6" mask="url(#path-59-inside-52_166_238)"/>
<mask id="path-60-inside-53_166_238" fill="white">
<path d="M118.968 62.8358C119.139 63.4208 119.14 64.0266 118.97 64.6119C118.801 65.1971 118.466 65.7483 117.987 66.2278C117.509 66.7074 116.898 67.1041 116.197 67.3911C115.496 67.6781 114.721 67.8487 113.924 67.8912C113.127 67.9337 112.327 67.8472 111.579 67.6375C110.831 67.4278 110.151 67.0999 109.587 66.676C109.023 66.2521 108.587 65.7422 108.308 65.1808C108.03 64.6194 107.917 64.0197 107.975 63.4224L113.528 63.7271L118.968 62.8358Z"/>
</mask>
<path d="M118.968 62.8358C119.139 63.4208 119.14 64.0266 118.97 64.6119C118.801 65.1971 118.466 65.7483 117.987 66.2278C117.509 66.7074 116.898 67.1041 116.197 67.3911C115.496 67.6781 114.721 67.8487 113.924 67.8912C113.127 67.9337 112.327 67.8472 111.579 67.6375C110.831 67.4278 110.151 67.0999 109.587 66.676C109.023 66.2521 108.587 65.7422 108.308 65.1808C108.03 64.6194 107.917 64.0197 107.975 63.4224L113.528 63.7271L118.968 62.8358Z" stroke="white" stroke-width="6" mask="url(#path-60-inside-53_166_238)"/>
<mask id="path-61-inside-54_166_238" fill="white">
<path d="M144.424 91.2232C144.595 91.8083 144.595 92.414 144.426 92.9993C144.257 93.5846 143.921 94.1357 143.443 94.6153C142.964 95.0948 142.354 95.4915 141.653 95.7786C140.951 96.0656 140.176 96.2361 139.379 96.2786C138.582 96.3211 137.783 96.2346 137.035 96.025C136.286 95.8153 135.607 95.4874 135.043 95.0635C134.478 94.6396 134.042 94.1296 133.764 93.5682C133.486 93.0068 133.372 92.4071 133.43 91.8098L138.984 92.1146L144.424 91.2232Z"/>
</mask>
<path d="M144.424 91.2232C144.595 91.8083 144.595 92.414 144.426 92.9993C144.257 93.5846 143.921 94.1357 143.443 94.6153C142.964 95.0948 142.354 95.4915 141.653 95.7786C140.951 96.0656 140.176 96.2361 139.379 96.2786C138.582 96.3211 137.783 96.2346 137.035 96.025C136.286 95.8153 135.607 95.4874 135.043 95.0635C134.478 94.6396 134.042 94.1296 133.764 93.5682C133.486 93.0068 133.372 92.4071 133.43 91.8098L138.984 92.1146L144.424 91.2232Z" stroke="white" stroke-width="6" mask="url(#path-61-inside-54_166_238)"/>
<mask id="path-62-inside-55_166_238" fill="white">
<path d="M104.649 46.1373C104.82 46.7224 104.82 47.3281 104.651 47.9134C104.482 48.4987 104.146 49.0498 103.668 49.5293C103.189 50.0089 102.579 50.4056 101.878 50.6926C101.177 50.9796 100.401 51.1502 99.6044 51.1927C98.8076 51.2352 98.0079 51.1487 97.2596 50.939C96.5113 50.7294 95.832 50.4014 95.2676 49.9775C94.7033 49.5536 94.2673 49.0437 93.9891 48.4823C93.711 47.9209 93.5972 47.3212 93.6555 46.7239L99.2091 47.0286L104.649 46.1373Z"/>
</mask>
<path d="M104.649 46.1373C104.82 46.7224 104.82 47.3281 104.651 47.9134C104.482 48.4987 104.146 49.0498 103.668 49.5293C103.189 50.0089 102.579 50.4056 101.878 50.6926C101.177 50.9796 100.401 51.1502 99.6044 51.1927C98.8076 51.2352 98.0079 51.1487 97.2596 50.939C96.5113 50.7294 95.832 50.4014 95.2676 49.9775C94.7033 49.5536 94.2673 49.0437 93.9891 48.4823C93.711 47.9209 93.5972 47.3212 93.6555 46.7239L99.2091 47.0286L104.649 46.1373Z" stroke="white" stroke-width="6" mask="url(#path-62-inside-55_166_238)"/>
<mask id="path-63-inside-56_166_238" fill="white">
<path d="M130.105 74.5245C130.276 75.1096 130.276 75.7153 130.107 76.3006C129.938 76.8859 129.603 77.437 129.124 77.9165C128.645 78.3961 128.035 78.7928 127.334 79.0798C126.633 79.3668 125.857 79.5374 125.06 79.5799C124.264 79.6224 123.464 79.5359 122.716 79.3262C121.967 79.1166 121.288 78.7887 120.724 78.3648C120.159 77.9409 119.723 77.4309 119.445 76.8695C119.167 76.3081 119.053 75.7084 119.112 75.1111L124.665 75.4158L130.105 74.5245Z"/>
</mask>
<path d="M130.105 74.5245C130.276 75.1096 130.276 75.7153 130.107 76.3006C129.938 76.8859 129.603 77.437 129.124 77.9165C128.645 78.3961 128.035 78.7928 127.334 79.0798C126.633 79.3668 125.857 79.5374 125.06 79.5799C124.264 79.6224 123.464 79.5359 122.716 79.3262C121.967 79.1166 121.288 78.7887 120.724 78.3648C120.159 77.9409 119.723 77.4309 119.445 76.8695C119.167 76.3081 119.053 75.7084 119.112 75.1111L124.665 75.4158L130.105 74.5245Z" stroke="white" stroke-width="6" mask="url(#path-63-inside-56_166_238)"/>
<mask id="path-64-inside-57_166_238" fill="white">
<path d="M122.68 67.0103C122.851 67.5954 122.852 68.2011 122.682 68.7864C122.513 69.3717 122.178 69.9228 121.699 70.4024C121.221 70.8819 120.61 71.2787 119.909 71.5657C119.208 71.8527 118.433 72.0232 117.636 72.0657C116.839 72.1083 116.039 72.0217 115.291 71.8121C114.543 71.6024 113.863 71.2745 113.299 70.8506C112.735 70.4267 112.299 69.9167 112.02 69.3553C111.742 68.7939 111.628 68.1942 111.687 67.5969L117.24 67.9017L122.68 67.0103Z"/>
</mask>
<path d="M122.68 67.0103C122.851 67.5954 122.852 68.2011 122.682 68.7864C122.513 69.3717 122.178 69.9228 121.699 70.4024C121.221 70.8819 120.61 71.2787 119.909 71.5657C119.208 71.8527 118.433 72.0232 117.636 72.0657C116.839 72.1083 116.039 72.0217 115.291 71.8121C114.543 71.6024 113.863 71.2745 113.299 70.8506C112.735 70.4267 112.299 69.9167 112.02 69.3553C111.742 68.7939 111.628 68.1942 111.687 67.5969L117.24 67.9017L122.68 67.0103Z" stroke="white" stroke-width="6" mask="url(#path-64-inside-57_166_238)"/>
<mask id="path-65-inside-58_166_238" fill="white">
<path d="M148.136 95.398C148.307 95.9831 148.308 96.5888 148.138 97.1741C147.969 97.7594 147.634 98.3105 147.155 98.7901C146.677 99.2696 146.066 99.6663 145.365 99.9534C144.664 100.24 143.889 100.411 143.092 100.453C142.295 100.496 141.495 100.409 140.747 100.2C139.999 99.9901 139.319 99.6622 138.755 99.2383C138.191 98.8144 137.755 98.3044 137.476 97.743C137.198 97.1816 137.084 96.5819 137.143 95.9846L142.696 96.2894L148.136 95.398Z"/>
</mask>
<path d="M148.136 95.398C148.307 95.9831 148.308 96.5888 148.138 97.1741C147.969 97.7594 147.634 98.3105 147.155 98.7901C146.677 99.2696 146.066 99.6663 145.365 99.9534C144.664 100.24 143.889 100.411 143.092 100.453C142.295 100.496 141.495 100.409 140.747 100.2C139.999 99.9901 139.319 99.6622 138.755 99.2383C138.191 98.8144 137.755 98.3044 137.476 97.743C137.198 97.1816 137.084 96.5819 137.143 95.9846L142.696 96.2894L148.136 95.398Z" stroke="white" stroke-width="6" mask="url(#path-65-inside-58_166_238)"/>
</svg>
