<svg width="149" height="120" viewBox="0 0 149 120" fill="none" xmlns="http://www.w3.org/2000/svg">
<rect x="18" y="3" width="114" height="114" rx="17" fill="#169FB5" stroke="#BCECF4" stroke-width="6"/>
<path d="M73.995 22.6404L146.931 50.6187M74.5833 15.5217L147.519 43.5" stroke="white" stroke-width="3"/>
<line y1="-1.5" x2="72.259" y2="-1.5" transform="matrix(0.964653 -0.263522 0.219473 0.975619 74.3799 105.001)" stroke="white" stroke-width="3"/>
<line y1="-1.5" x2="72.5394" y2="-1.5" transform="matrix(0.942008 0.335591 -0.281503 0.959561 6.6106 80.8799)" stroke="white" stroke-width="3"/>
<line y1="-1.5" x2="16.4424" y2="-1.5" transform="matrix(0.98262 0.185627 -0.153716 0.988115 24.0635 73.2417)" stroke="white" stroke-width="3"/>
<line y1="-1.5" x2="74.9409" y2="-1.5" transform="matrix(0.960492 -0.278307 0.232092 0.972694 2.8418 45.8164)" stroke="white" stroke-width="3"/>
<line y1="-1.5" x2="76.296" y2="-1.5" transform="matrix(0.962621 -0.27085 0.232144 0.972681 1 37.6646)" stroke="white" stroke-width="3"/>
<line y1="-1.5" x2="17.6094" y2="-1.5" transform="matrix(0.998052 -0.0623801 0.0529417 0.998598 24.0632 52.9395)" stroke="white" stroke-width="3"/>
<line x1="38.2578" y1="47.4644" x2="38.2578" y2="75.627" stroke="white" stroke-width="3"/>
<line y1="-1.5" x2="22.5415" y2="-1.5" transform="matrix(-0.00591139 0.999983 -0.999976 -0.00696903 24.1963 50.1921)" stroke="white" stroke-width="3"/>
<path d="M74.7515 104.641C74.2778 86.4812 74.3288 59.7944 74.2196 22.6265" stroke="white" stroke-width="3"/>
<path d="M73.989 24.0062V13.9936" stroke="white" stroke-width="3"/>
<path d="M102.539 50.874L102.078 96.1482" stroke="white" stroke-width="3"/>
<line y1="-1.5" x2="28.0529" y2="-1.5" transform="matrix(0.954337 0.298733 -0.256627 0.96651 100.199 52.636)" stroke="white" stroke-width="3"/>
<line x1="124.932" y1="58.3755" x2="124.932" y2="87.8799" stroke="white" stroke-width="3"/>
<line y1="-1.5" x2="34.8279" y2="-1.5" transform="matrix(-0.00477068 0.999989 -0.999984 -0.00562424 114.184 56.9639)" stroke="white" stroke-width="3"/>
<line x1="114.656" y1="73.7505" x2="114.656" y2="78.3288" stroke="white" stroke-width="3"/>
<path d="M115.233 73.7505V77.3114" stroke="white" stroke-width="3"/>
</svg>
