<svg width="148" height="120" viewBox="0 0 148 120" fill="none" xmlns="http://www.w3.org/2000/svg">
<rect x="17" y="3" width="114" height="114" rx="17" fill="#169FB5" stroke="#BCECF4" stroke-width="6"/>
<path d="M98.2441 23.2828C98.9458 22.7929 100.032 22.4534 101.271 22.3891C102.501 22.3253 103.717 22.5422 104.633 22.99L115.633 28.3669C116.57 28.825 116.771 29.2976 116.798 29.469C116.813 29.5726 116.82 29.9303 116.136 30.4077L98.9269 42.4208C98.2252 42.9106 97.1385 43.2501 95.9001 43.3144C94.6703 43.3782 93.4542 43.1613 92.538 42.7135L81.538 37.3366C80.6008 36.8785 80.3996 36.4059 80.3735 36.2345C80.3578 36.1309 80.3514 35.7732 81.0353 35.2958L98.2441 23.2828Z" stroke="white" stroke-width="3"/>
<path d="M19.5972 55.2171C20.3121 54.7242 21.4181 54.3831 22.6771 54.3186C23.9275 54.2545 25.1646 54.4723 26.0973 54.9227L37.2332 60.2995C38.1897 60.7614 38.3907 61.2365 38.4161 61.4012C38.4304 61.4941 38.4437 61.8505 37.745 62.3322L20.3238 74.3453C19.609 74.8382 18.5029 75.1792 17.2439 75.2438C15.9936 75.3079 14.7565 75.0901 13.8237 74.6397L2.68789 69.2629C1.73139 68.801 1.53033 68.3259 1.50496 68.1612C1.49065 68.0682 1.47738 67.7119 2.176 67.2302L19.5972 55.2171Z" stroke="white" stroke-width="3"/>
<path d="M25.4393 74.4686C26.1541 73.9757 27.2601 73.6346 28.5192 73.5701C29.7695 73.506 31.0066 73.7237 31.9394 74.1741L43.0752 79.551C44.0317 80.0128 44.2328 80.4879 44.2581 80.6527C44.2724 80.7456 44.2857 81.1019 43.5871 81.5837L26.1658 93.5967C25.451 94.0897 24.345 94.4307 23.086 94.4953C21.8356 94.5594 20.5985 94.3416 19.6658 93.8912L8.52993 88.5143C7.57343 88.0525 7.37237 87.5774 7.347 87.4126C7.33269 87.3197 7.31942 86.9634 8.01804 86.4816L25.4393 74.4686Z" stroke="white" stroke-width="3"/>
<path d="M54.1632 77.2862C54.878 76.7933 55.984 76.4522 57.2431 76.3877C58.4934 76.3236 59.7305 76.5414 60.6632 76.9917L71.7991 82.3686C72.7556 82.8304 72.9566 83.3056 72.982 83.4703C72.9963 83.5632 73.0096 83.9196 72.311 84.4013L54.8897 96.4144C54.1749 96.9073 53.0689 97.2483 51.8098 97.3129C50.5595 97.377 49.3224 97.1592 48.3897 96.7088L37.2538 91.332C36.2973 90.8701 36.0962 90.395 36.0709 90.2303C36.0566 90.1373 36.0433 89.781 36.7419 89.2993L54.1632 77.2862Z" stroke="white" stroke-width="3"/>
<path d="M89.9678 75.4031C90.6695 74.9133 91.7561 74.5737 92.9945 74.5095C94.2244 74.4456 95.4405 74.6626 96.3566 75.1104L107.357 80.4873C108.294 80.9454 108.495 81.418 108.521 81.5894C108.537 81.693 108.543 82.0506 107.859 82.528L90.6505 94.5411C89.9488 95.031 88.8622 95.3705 87.6238 95.4348C86.3939 95.4986 85.1778 95.2817 84.2617 94.8338L73.2616 89.457C72.3244 88.9988 72.1232 88.5262 72.0971 88.3548C72.0814 88.2512 72.0751 87.8936 72.759 87.4162L89.9678 75.4031Z" stroke="white" stroke-width="3"/>
<path d="M114.31 58.4991C115.012 58.0092 116.098 57.6697 117.337 57.6054C118.567 57.5416 119.783 57.7585 120.699 58.2064L131.699 63.5832C132.636 64.0413 132.837 64.5139 132.863 64.6854C132.879 64.7889 132.886 65.1466 132.202 65.624L114.993 77.6371C114.291 78.1269 113.204 78.4664 111.966 78.5307C110.736 78.5946 109.52 78.3776 108.604 77.9298L97.6039 72.5529C96.6667 72.0948 96.4655 71.6222 96.4394 71.4508C96.4237 71.3472 96.4174 70.9895 97.1013 70.5121L114.31 58.4991Z" stroke="white" stroke-width="3"/>
<path d="M127.676 26.5743C128.391 26.0814 129.497 25.7403 130.756 25.6758C132.006 25.6117 133.243 25.8295 134.176 26.2798L145.312 31.6567C146.269 32.1185 146.47 32.5937 146.495 32.7584C146.509 32.8513 146.523 33.2076 145.824 33.6894L128.403 45.7025C127.688 46.1954 126.582 46.5364 125.323 46.601C124.072 46.6651 122.835 46.4473 121.903 45.9969L110.767 40.6201C109.81 40.1582 109.609 39.6831 109.584 39.5184C109.57 39.4254 109.556 39.0691 110.255 38.5874L127.676 26.5743Z" stroke="white" stroke-width="3"/>
<path d="M103.588 43.928C104.291 43.4469 105.381 43.1126 106.625 43.0493C107.859 42.9865 109.079 43.2 109.999 43.6405L120.999 48.912C121.943 49.3647 122.131 49.8256 122.153 49.9698C122.164 50.0398 122.19 50.3784 121.502 50.8492L104.294 62.6267C103.59 63.1079 102.5 63.4422 101.257 63.5054C100.023 63.5682 98.802 63.3547 97.8828 62.9142L86.8827 57.6428L86.2345 58.9955L86.8827 57.6428C85.938 57.1901 85.7504 56.7292 85.7281 56.5849C85.7172 56.515 85.6912 56.1764 86.3791 55.7055L103.588 43.928Z" stroke="white" stroke-width="3"/>
<path d="M78.7705 60.3772C79.4722 59.8874 80.5589 59.5479 81.7972 59.4836C83.0271 59.4197 84.2432 59.6367 85.1594 60.0845L96.1594 65.4614C97.0966 65.9195 97.2978 66.3921 97.3239 66.5635C97.3396 66.6671 97.346 67.0247 96.6621 67.5022L79.4533 79.5152C78.7516 80.0051 77.6649 80.3446 76.4265 80.4089C75.1966 80.4727 73.9806 80.2558 73.0644 79.8079L62.0644 74.4311C61.1271 73.973 60.926 73.5004 60.8999 73.3289C60.8841 73.2254 60.8778 72.8677 61.5617 72.3903L78.7705 60.3772Z" stroke="white" stroke-width="3"/>
<path d="M73.8907 40.6409C74.5937 40.1597 75.6841 39.8255 76.9273 39.7622C78.1617 39.6994 79.3822 39.9129 80.3014 40.3534L91.3015 45.6249C92.2462 46.0776 92.4338 46.5385 92.4562 46.6827C92.467 46.7527 92.493 47.0913 91.8051 47.5621L74.5963 59.3396C73.8932 59.8208 72.8028 60.1551 71.5596 60.2183C70.3253 60.2811 69.1047 60.0676 68.1855 59.6271L57.1855 54.3557L56.5372 55.7084L57.1855 54.3557C56.2407 53.9029 56.0532 53.4421 56.0308 53.2978C56.0199 53.2279 55.9939 52.8893 56.6819 52.4184L73.8907 40.6409Z" stroke="white" stroke-width="3"/>
<path d="M68.06 21.4046C68.7618 20.9147 69.8484 20.5752 71.0868 20.5109C72.3167 20.4471 73.5327 20.664 74.4489 21.1119L85.449 26.4887C86.3862 26.9468 86.5874 27.4195 86.6134 27.5909C86.6292 27.6945 86.6355 28.0521 85.9516 28.5295L68.7428 40.5426C68.0411 41.0324 66.9545 41.372 65.7161 41.4362C64.4862 41.5001 63.2701 41.2831 62.3539 40.8353L51.3539 35.4584C50.4167 35.0003 50.2155 34.5277 50.1894 34.3563C50.1737 34.2527 50.1674 33.8951 50.8513 33.4177L68.06 21.4046Z" stroke="white" stroke-width="3"/>
<path d="M49.2943 57.565C50.0091 57.0721 51.1151 56.731 52.3742 56.6665C53.6245 56.6024 54.8616 56.8202 55.7943 57.2706L66.9302 62.6474C67.8867 63.1093 68.0877 63.5844 68.1131 63.7491C68.1274 63.842 68.1407 64.1984 67.4421 64.6801L50.0208 76.6932C49.306 77.1861 48.2 77.5271 46.9409 77.5917C45.6906 77.6558 44.4535 77.438 43.5208 76.9876L32.3849 71.6108C31.4284 71.1489 31.2274 70.6738 31.202 70.5091C31.1877 70.4161 31.1744 70.0598 31.873 69.5781L49.2943 57.565Z" stroke="white" stroke-width="3"/>
<path d="M43.441 38.7678C44.1573 38.2836 45.2671 37.9479 46.5309 37.8843C47.7856 37.8213 49.0271 38.0356 49.963 38.4786L61.0988 43.75C62.063 44.2064 62.2504 44.6699 62.272 44.8076C62.2813 44.8667 62.3147 45.2041 61.6117 45.6794L44.1905 57.4569C43.4742 57.9411 42.3644 58.2768 41.1006 58.3403C39.8459 58.4034 38.6044 58.1891 37.6685 57.7461L26.5327 52.4747C25.5685 52.0182 25.3811 51.5547 25.3595 51.4171C25.3502 51.358 25.3168 51.0206 26.0198 50.5453L43.441 38.7678Z" stroke="white" stroke-width="3"/>
</svg>
