<svg width="153" height="120" viewBox="0 0 153 120" fill="none" xmlns="http://www.w3.org/2000/svg">
<rect x="19" y="3" width="114" height="114" rx="17" fill="#169FB5" stroke="#BCECF4" stroke-width="6"/>
<line y1="-1.5" x2="66.054" y2="-1.5" transform="matrix(0.819193 -0.573518 0.539655 0.841887 1.93457 66.9138)" stroke="white" stroke-width="3"/>
<line y1="-1.5" x2="67.842" y2="-1.5" transform="matrix(0.812201 -0.583377 0.565189 0.824961 43.0547 119.877)" stroke="white" stroke-width="3"/>
<line y1="-1.5" x2="66.9377" y2="-1.5" transform="matrix(0.607422 0.794379 -0.767537 0.641005 29.2529 47.6975)" stroke="white" stroke-width="3"/>
<path d="M54.9801 27.2486L97.1358 80.8569" stroke="white" stroke-width="3"/>
<line y1="-1.5" x2="66.9377" y2="-1.5" transform="matrix(0.607422 0.794379 -0.767537 0.641005 1.93457 66.8262)" stroke="white" stroke-width="3"/>
<path d="M145.539 22.8976C145.539 31.7362 138.59 38.8265 130.108 38.8265C121.626 38.8265 114.676 31.7362 114.676 22.8976C114.676 14.0591 121.626 6.96875 130.108 6.96875C138.59 6.96875 145.539 14.0591 145.539 22.8976Z" stroke="white" stroke-width="3"/>
<line y1="-1.5" x2="15.9491" y2="-1.5" transform="matrix(-0.961514 -0.274755 0.260375 -0.965508 109.542 15.2139)" stroke="white" stroke-width="3"/>
<line y1="-1.5" x2="15.3905" y2="-1.5" transform="matrix(-0.889033 -0.457843 0.437125 -0.899401 115.703 8.04639)" stroke="white" stroke-width="3"/>
<line y1="-1.5" x2="16.4006" y2="-1.5" transform="matrix(-0.957075 0.28984 -0.274799 -0.961502 109.902 34.0703)" stroke="white" stroke-width="3"/>
<line y1="-1.5" x2="16.3611" y2="-1.5" transform="matrix(-0.999661 0.0260304 -0.0245669 -0.999698 107.089 23.3447)" stroke="white" stroke-width="3"/>
<line y1="-1.5" x2="14.7142" y2="-1.5" transform="matrix(-0.728131 0.685438 -0.664162 -0.747589 115.339 41.2207)" stroke="white" stroke-width="3"/>
<line y1="-1.5" x2="14.9131" y2="-1.5" transform="matrix(-0.267709 0.9635 -0.959289 -0.282428 124.688 45.5129)" stroke="white" stroke-width="3"/>
<line y1="-1.5" x2="13.7797" y2="-1.5" transform="matrix(-0.00746111 0.999972 -0.999969 -0.00790586 135.986 46.5835)" stroke="white" stroke-width="3"/>
<line y1="-1.5" x2="13.7128" y2="-1.5" transform="matrix(0.405135 0.914257 -0.905181 0.425025 144.444 46.3108)" stroke="white" stroke-width="3"/>
</svg>
